# xmcd CD database file
#
# Track frame offsets:
#	150
#	26595
#	61300
#	101379
#	124171
#	146735
#	166818
#	178767
#	208476
#	235559
#	256742
#	279528
#	300171
#	321244
#
# Disc length: 4419 seconds
#
# Revision: 0
# Processed by: cddbd v1.5.1PL0 Copyright (c) Steve Scherf et al.
# Submitted via: CDex 1.51
#
DISCID=bf11410e
DTITLE=Various Artist - For The Moment - Jazz Of The Caribbean
DYEAR=1900
DGENRE=Jazz
TTITLE0=Xaymaca - Luther Francois
TTITLE1=Citronella - Andre Woodvine Group
TTITLE2=Homage To Chano Pozo - Cuban Jazz All Stars
TTITLE3=Your Sweetness Is My Weakness - Eddie Bullen
TTITLE4=Baby Love - Carole
TTITLE5=I Like It - Kingsley Etienne
TTITLE6=Wha? - Roger Gittens
TTITLE7=Lespwa - Paco Charlery Quintet
TTITLE8=Michael "The Photographer" - D Williams and N Brathwaite
TTITLE9=Branches - Raf Robertson
TTITLE10=Someone Like You - A Bridgewater and F Abraham
TTITLE11=Dusky In Rio - Dale Husbands
TTITLE12=Canefields - Ahdri Zhina Mandela
TTITLE13=For The Moment - Quammie
EXTD=
EXTT0=
EXTT1=
EXTT2=
EXTT3=
EXTT4=
EXTT5=
EXTT6=
EXTT7=
EXTT8=
EXTT9=
EXTT10=
EXTT11=
EXTT12=
EXTT13=
PLAYORDER=
